<?xml version="1.0" encoding="UTF-8"?>
<svg xmlns="http://www.w3.org/2000/svg" xmlns:xlink="http://www.w3.org/1999/xlink" width="85pt" height="119pt" viewBox="0 0 85 119" version="1.1">
<g id="surface1">
<path style="fill:none;stroke-width:25;stroke-linecap:butt;stroke-linejoin:miter;stroke:rgb(0%,0%,0%);stroke-opacity:1;stroke-miterlimit:4;" d="M 76.618382 82.497702 C 71.434007 155.87454 -33.328125 295.20562 37.495956 295.20562 L 129.623897 295.20562 L 76.618382 440.993041 " transform="matrix(0.268987,0,0,0.266816,0,0)"/>
<path style=" stroke:none;fill-rule:nonzero;fill:rgb(0%,0%,0%);fill-opacity:1;" d="M 31.636719 21.878906 C 31.636719 27.773438 26.820312 32.550781 20.878906 32.550781 C 14.9375 32.550781 10.121094 27.773438 10.121094 21.878906 C 10.121094 15.984375 14.9375 11.207031 20.878906 11.207031 C 26.820312 11.207031 31.636719 15.984375 31.636719 21.878906 Z M 31.636719 21.878906 "/>
<path style="fill:none;stroke-width:25;stroke-linecap:butt;stroke-linejoin:miter;stroke:rgb(0%,0%,0%);stroke-opacity:1;stroke-miterlimit:4;" d="M 75.12261 13.000525 L 297.615074 13.000525 L 235.460662 184.452272 L 208.013971 251.006762 L 108.900919 251.006762 M 233.224265 181.992713 L 108.900919 181.992713 " transform="matrix(0.268987,0,0,0.266816,0,0)"/>
<path style="fill:none;stroke-width:25;stroke-linecap:butt;stroke-linejoin:miter;stroke:rgb(0%,0%,0%);stroke-opacity:1;stroke-miterlimit:4;" d="M 56.127757 150.003808 L 76.618382 204.494748 C 88.628125 229.002495 110.643566 210.716846 145.118934 219.003217 " transform="matrix(0.268987,0,0,0.266816,0,0)"/>
</g>
</svg>
